<svg version="1.1" viewBox="0 0 96 96" xmlns="http://www.w3.org/2000/svg" xmlns:xlink="http://www.w3.org/1999/xlink" id="Icons_Compass" overflow="hidden"><path d=" M 48 10 C 27 10 10 27 10 48 C 10 69 27 86 48 86 C 69 86 86 69 86 48 C 86 27 69 10 48 10 Z M 48 16 C 65.6 16 80 30.4 80 48 C 80 65.6 65.6 80 48 80 C 30.4 80 16 65.6 16 48 C 16 30.4 30.4 16 48 16" stroke="none" stroke-width="1" stroke-linecap="butt" fill="#FFE699" fill-opacity="1"/><path d=" M 32.4 63.6 L 54.4 54.6 L 63.4 32.6 L 41.4 41.8 L 32.4 63.6 Z M 48 46 C 49.2 46 50 46.8 50 48 C 50 49.2 49.2 50 48 50 C 46.8 50 46 49.2 46 48 C 46 46.8 46.8 46 48 46" stroke="none" stroke-width="1" stroke-linecap="butt" fill="#FFE699" fill-opacity="1"/></svg>